<!--
  - /*
  -  * Copyright (c) 2025-2026 Jay Shah
  -  * SPDX-License-Identifier: Apache-2.0
  -  */
  -->

<svg version="1.1" xmlns="http://www.w3.org/2000/svg" viewBox="0 0 1440 1126.8559248503386" width="1440" height="1126.8559248503386" filter="invert(93%) hue-rotate(180deg)">
  <!-- svg-source:excalidraw -->
  
  <defs>
    <style class="style-fonts">
      @font-face {
        font-family: "Virgil";
        src: url("https://file%2B.vscode-resource.vscode-cdn.net/Users/jay/.antigravity-ide/extensions/lrstanley.excalidraw-editor-3.7.4-universal/public//dist/excalidraw-assets/Virgil.woff2");
      }
      @font-face {
        font-family: "Cascadia";
        src: url("https://file%2B.vscode-resource.vscode-cdn.net/Users/jay/.antigravity-ide/extensions/lrstanley.excalidraw-editor-3.7.4-universal/public//dist/excalidraw-assets/Cascadia.woff2");
      }
      @font-face {
        font-family: "Assistant";
        src: url("https://file%2B.vscode-resource.vscode-cdn.net/Users/jay/.antigravity-ide/extensions/lrstanley.excalidraw-editor-3.7.4-universal/public//dist/excalidraw-assets/Assistant-Regular.woff2");
      }
    </style>
    
  </defs>
  <rect x="0" y="0" width="1440" height="1126.8559248503386" fill="#ffffff"></rect><g stroke-linecap="round" transform="translate(10 204.28828813594015) rotate(0 710 365)"><path d="M32 0 C527.55 -6.29, 1020.23 -6.92, 1388 0 C1407.21 -2.82, 1416.61 8.83, 1420 32 C1423.74 249.91, 1423.5 467.29, 1420 698 C1421.61 720.31, 1408.03 727.8, 1388 730 C997.59 732.44, 607.5 732.01, 32 730 C13.64 728.38, -2.35 721.34, 0 698 C-3.02 435.34, -3.39 172.23, 0 32 C1.31 10.83, 8.92 0.51, 32 0" stroke="none" stroke-width="0" fill="#ffffff"></path><path d="M32 0 C426.99 4.01, 823.37 2.89, 1388 0 M1388 0 C1408.7 1.02, 1419.37 10.09, 1420 32 M1420 32 C1422.15 171.44, 1421.8 312.05, 1420 698 M1420 698 C1420 717.95, 1411.2 729.17, 1388 730 M1388 730 C962.29 728.86, 536.49 728.39, 32 730 M32 730 C12.07 729.64, 0.99 718.32, 0 698 M0 698 C-1.96 470.66, -1.75 245.49, 0 32 M0 32 C0.92 11.33, 10.34 -0.96, 32 0" stroke="#868e96" stroke-width="2.5" fill="none" stroke-dasharray="8 10"></path></g><g stroke-linecap="round" transform="translate(297.34052693287504 975.9843367481666) rotate(0 478.1096323467659 70.43579405108608)"><path d="M32 0 C367.64 -4.69, 702.94 -6.36, 924.22 0 C942.16 -1.83, 957.15 14.21, 956.22 32 C952.22 64.75, 956.88 93, 956.22 108.87 C954.92 128.01, 945.11 138.03, 924.22 140.87 C634.22 140.36, 345.25 140.16, 32 140.87 C8.31 142.87, 3.44 132.82, 0 108.87 C-0.21 84.68, 0.86 55.59, 0 32 C-1.75 11.17, 14.06 -1.84, 32 0" stroke="none" stroke-width="0" fill="#f8f9fa"></path><path d="M32 0 C246.61 -3.81, 460.67 -3.05, 924.22 0 M924.22 0 C944.92 -0.58, 954.43 12.43, 956.22 32 M956.22 32 C954.66 54.99, 956.03 77.59, 956.22 108.87 M956.22 108.87 C958.09 129.37, 945.83 140.8, 924.22 140.87 M924.22 140.87 C678.13 141.51, 433.68 141.63, 32 140.87 M32 140.87 C11.66 139.86, 0.8 131.61, 0 108.87 M0 108.87 C0.4 84.41, 1 57.19, 0 32 M0 32 C-0.33 9.71, 11.96 0.28, 32 0" stroke="#868e96" stroke-width="2.5" fill="none" stroke-dasharray="8 10"></path></g><g stroke-linecap="round"><g transform="translate(689.6525014449026 194.61562768428945) rotate(0 4.927809723172459 35.493848158720056)"><path d="M-0.52 -0.38 C1.03 11.35, 8.79 58.89, 10.47 70.61 M1.4 -1.63 C2.75 10.25, 8.65 59.9, 9.84 71.95" stroke="#495057" stroke-width="2" fill="none"></path></g><g transform="translate(689.6525014449026 194.61562768428945) rotate(0 4.927809723172459 35.493848158720056)"><path d="M-3.45 45.05 C1.23 56.8, 6.52 65.88, 9.84 71.95 M-3.45 45.05 C-0.67 49.85, 1.69 56.11, 9.84 71.95" stroke="#495057" stroke-width="2" fill="none"></path></g><g transform="translate(689.6525014449026 194.61562768428945) rotate(0 4.927809723172459 35.493848158720056)"><path d="M16.94 42.8 C13.54 55.36, 10.73 65.33, 9.84 71.95 M16.94 42.8 C15.46 48.08, 13.52 54.82, 9.84 71.95" stroke="#495057" stroke-width="2" fill="none"></path></g></g><mask></mask><g stroke-linecap="round"><g transform="translate(678.239979046934 346.37757109336707) rotate(0 0 20)"><path d="M0.28 -0.17 C0.29 6.44, -0.19 32.81, -0.16 39.51 M-0.24 -0.74 C-0.29 5.94, -0.78 33.06, -0.67 39.95" stroke="#495057" stroke-width="2" fill="none"></path></g><g transform="translate(678.239979046934 346.37757109336707) rotate(0 0 20)"><path d="M-7.45 21.14 C-6.05 25.65, -4.9 31.65, -0.67 39.95 M-7.45 21.14 C-5.74 26.79, -3.33 32.32, -0.67 39.95" stroke="#495057" stroke-width="2" fill="none"></path></g><g transform="translate(678.239979046934 346.37757109336707) rotate(0 0 20)"><path d="M6.24 21.18 C4.12 25.72, 1.77 31.71, -0.67 39.95 M6.24 21.18 C3.76 26.76, 1.99 32.28, -0.67 39.95" stroke="#495057" stroke-width="2" fill="none"></path></g></g><mask></mask><g stroke-linecap="round"><g transform="translate(678.239979046934 471.37757109336707) rotate(0 0 30)"><path d="M-0.35 -1.08 C-0.27 9, 1.05 50.06, 1.06 60.07 M1.67 0.97 C1.63 11.29, 1.14 51.84, 0.66 61.64" stroke="#495057" stroke-width="2" fill="none"></path></g><g transform="translate(678.239979046934 471.37757109336707) rotate(0 0 30)"><path d="M-8.83 33.18 C-7.38 44.95, -2.15 52.69, 0.66 61.64 M-8.83 33.18 C-6.99 38.61, -4.02 44.99, 0.66 61.64" stroke="#495057" stroke-width="2" fill="none"></path></g><g transform="translate(678.239979046934 471.37757109336707) rotate(0 0 30)"><path d="M11.69 33.74 C5.94 45.26, 3.97 52.8, 0.66 61.64 M11.69 33.74 C9.13 39, 7.7 45.26, 0.66 61.64" stroke="#495057" stroke-width="2" fill="none"></path></g></g><mask></mask><g stroke-linecap="round"><g transform="translate(838.239979046934 428.37757109336707) rotate(0 80 0)"><path d="M1.06 0.07 C27.73 0.07, 133.35 -0.97, 159.71 -1.03" stroke="#6741d9" stroke-width="2.5" fill="none" stroke-dasharray="8 10"></path></g><g transform="translate(838.239979046934 428.37757109336707) rotate(0 80 0)"><path d="M131.58 9.42 C139.41 5.85, 145.21 2.14, 159.71 -1.03" stroke="#6741d9" stroke-width="2.5" fill="none"></path></g><g transform="translate(838.239979046934 428.37757109336707) rotate(0 80 0)"><path d="M131.45 -11.1 C139.13 -9.11, 144.97 -7.26, 159.71 -1.03" stroke="#6741d9" stroke-width="2.5" fill="none"></path></g></g><mask></mask><g stroke-linecap="round"><g transform="translate(463.03399185936223 544.8488469209489) rotate(9.621022649936611 -71.39737374054187 11.652294965208284)"><path d="M-0.29 -1.03 C-24.41 2.8, -119.87 19.09, -143.62 23.01 M1.75 1.05 C-22.07 5.04, -117.12 20.67, -141.34 24.39" stroke="#f08c00" stroke-width="2" fill="none"></path></g><g transform="translate(463.03399185936223 544.8488469209489) rotate(9.621022649936611 -71.39737374054187 11.652294965208284)"><path d="M-115.12 9.81 C-127 14.03, -135.96 21.06, -141.34 24.39 M-115.12 9.81 C-120.9 13.03, -127.34 16.16, -141.34 24.39" stroke="#f08c00" stroke-width="2" fill="none"></path></g><g transform="translate(463.03399185936223 544.8488469209489) rotate(9.621022649936611 -71.39737374054187 11.652294965208284)"><path d="M-111.88 30.07 C-125.03 26.42, -135.24 25.59, -141.34 24.39 M-111.88 30.07 C-118.6 28.6, -125.78 27.05, -141.34 24.39" stroke="#f08c00" stroke-width="2" fill="none"></path></g></g><mask></mask><g stroke-linecap="round"><g transform="translate(609.5461185438594 622.3775710933671) rotate(0 -70.36328662799588 27.379901415219877)"><path d="M-0.82 -0.3 C-24.23 8.86, -117.6 44.84, -140.73 53.93 M0.95 -1.5 C-22.59 7.88, -118.22 45.56, -141.68 55.03" stroke="#1971c2" stroke-width="2" fill="none"></path></g><g transform="translate(609.5461185438594 622.3775710933671) rotate(0 -70.36328662799588 27.379901415219877)"><path d="M-119.28 35.07 C-126.12 40.42, -133.17 47.78, -141.68 55.03 M-119.28 35.07 C-125.29 39.95, -130.58 44.71, -141.68 55.03" stroke="#1971c2" stroke-width="2" fill="none"></path></g><g transform="translate(609.5461185438594 622.3775710933671) rotate(0 -70.36328662799588 27.379901415219877)"><path d="M-111.69 54.14 C-120.45 54.18, -129.6 56.29, -141.68 55.03 M-111.69 54.14 C-119.69 54.08, -126.93 53.92, -141.68 55.03" stroke="#1971c2" stroke-width="2" fill="none"></path></g></g><mask></mask><g stroke-linecap="round"><g transform="translate(743.239979046934 621.3775710933671) rotate(0 30 27.5)"><path d="M0 -0.83 C10.32 8.3, 51.09 45.2, 61.12 54.5 M-1.46 1.35 C8.88 10.67, 50.6 46.63, 60.76 55.78" stroke="#e03131" stroke-width="2" fill="none"></path></g><g transform="translate(743.239979046934 621.3775710933671) rotate(0 30 27.5)"><path d="M32.81 44.88 C37.87 49.27, 44.89 50.2, 60.76 55.78 M32.81 44.88 C41.32 47.51, 49.02 52.11, 60.76 55.78" stroke="#e03131" stroke-width="2" fill="none"></path></g><g transform="translate(743.239979046934 621.3775710933671) rotate(0 30 27.5)"><path d="M46.36 29.46 C48.24 37.42, 52.13 41.92, 60.76 55.78 M46.36 29.46 C50.81 36.63, 54.5 45.79, 60.76 55.78" stroke="#e03131" stroke-width="2" fill="none"></path></g></g><mask></mask><g stroke-linecap="round"><g transform="translate(881.0851245348645 578.8699715947807) rotate(0 126.14043279198336 52.948352494890855)"><path d="M1.12 -0.5 C22.14 6.41, 84.33 22.94, 126.14 40.62 C167.95 58.3, 230.91 94.82, 251.98 105.57 M0.25 -1.81 C21.13 5.38, 83.47 24.05, 125.27 42.13 C167.08 60.22, 229.78 96.1, 251.06 106.71" stroke="#e8590c" stroke-width="2" fill="none"></path></g><g transform="translate(881.0851245348645 578.8699715947807) rotate(0 126.14043279198336 52.948352494890855)"><path d="M221.35 102.56 C229.4 103.8, 239.07 104.28, 251.06 106.71 M221.35 102.56 C229.13 104.59, 237.37 105.52, 251.06 106.71" stroke="#e8590c" stroke-width="2" fill="none"></path></g><g transform="translate(881.0851245348645 578.8699715947807) rotate(0 126.14043279198336 52.948352494890855)"><path d="M230.97 84.43 C236.01 91.2, 242.79 97.11, 251.06 106.71 M230.97 84.43 C236.17 91.34, 241.79 97.2, 251.06 106.71" stroke="#e8590c" stroke-width="2" fill="none"></path></g></g><mask></mask><g stroke-linecap="round"><g transform="translate(503.4446348785373 616.6327204241883) rotate(0 -135.96676620637788 101.67791835482893)"><path d="M0.17 -0.04 C-39.97 8.21, -194.38 15.27, -239.68 49.04 C-284.97 82.81, -266.19 176.69, -271.63 202.55 M-1.21 -1.11 C-41.62 7.36, -195.61 16.31, -240.78 50.4 C-285.95 84.5, -266.98 178.17, -272.24 203.45" stroke="#2f9e44" stroke-width="2" fill="none"></path></g><g transform="translate(503.4446348785373 616.6327204241883) rotate(0 -135.96676620637788 101.67791835482893)"><path d="M-282.07 175.1 C-278.39 185.74, -275 197.9, -272.24 203.45 M-282.07 175.1 C-280.05 182.14, -278.08 188.65, -272.24 203.45" stroke="#2f9e44" stroke-width="2" fill="none"></path></g><g transform="translate(503.4446348785373 616.6327204241883) rotate(0 -135.96676620637788 101.67791835482893)"><path d="M-261.55 175.42 C-265.94 185.96, -270.62 197.99, -272.24 203.45 M-261.55 175.42 C-264.31 182.52, -267.13 188.96, -272.24 203.45" stroke="#2f9e44" stroke-width="2" fill="none"></path></g></g><mask></mask><g stroke-linecap="round"><g transform="translate(402.5682293670011 774.7774432691092) rotate(0 -82.9358973047116 25.845027874603943)"><path d="M-0.3 -0.33 C-27.92 8.16, -137.91 42.08, -165.57 50.89 M1.75 -1.55 C-26.02 7.08, -138.19 43.31, -166.36 52" stroke="#1971c2" stroke-width="2" fill="none"></path></g><g transform="translate(402.5682293670011 774.7774432691092) rotate(0 -82.9358973047116 25.845027874603943)"><path d="M-142.58 33.71 C-150.6 39.9, -158.85 44.48, -166.36 52 M-142.58 33.71 C-151.92 41, -159.51 47.77, -166.36 52" stroke="#1971c2" stroke-width="2" fill="none"></path></g><g transform="translate(402.5682293670011 774.7774432691092) rotate(0 -82.9358973047116 25.845027874603943)"><path d="M-136.38 53.27 C-146.34 53.31, -156.53 51.75, -166.36 52 M-136.38 53.27 C-147.98 53.35, -157.86 52.89, -166.36 52" stroke="#1971c2" stroke-width="2" fill="none"></path></g></g><mask></mask><g stroke-linecap="round"><g transform="translate(784.1080847977487 767.0254673426756) rotate(0 -18.333867719341015 43.09692345243201)"><path d="M0.3 -0.8 C-5.82 13.76, -30.86 72.44, -37.06 87.03 M-1 1.39 C-7.29 15.65, -32.08 71.46, -38.21 85.35" stroke="#e03131" stroke-width="2" fill="none"></path></g><g transform="translate(784.1080847977487 767.0254673426756) rotate(0 -18.333867719341015 43.09692345243201)"><path d="M-36.18 55.42 C-38.16 63.01, -35.98 71.54, -38.21 85.35 M-36.18 55.42 C-36.34 66.3, -37.86 75.44, -38.21 85.35" stroke="#e03131" stroke-width="2" fill="none"></path></g><g transform="translate(784.1080847977487 767.0254673426756) rotate(0 -18.333867719341015 43.09692345243201)"><path d="M-17.42 63.73 C-24.54 69.08, -27.52 75.33, -38.21 85.35 M-17.42 63.73 C-24.09 71.78, -32.17 78.01, -38.21 85.35" stroke="#e03131" stroke-width="2" fill="none"></path></g></g><mask></mask><g stroke-linecap="round"><g transform="translate(1015.3332430863516 755.3555055027908) rotate(0 -350.61797640728423 57.667980320401284)"><path d="M-0.39 0.84 C-117.35 20.3, -584.54 96.77, -701.45 115.93 M1.6 0.24 C-115.56 19.41, -585.09 95.21, -702.51 114.12" stroke="#2f9e44" stroke-width="2" fill="none"></path></g><g transform="translate(1015.3332430863516 755.3555055027908) rotate(0 -350.61797640728423 57.667980320401284)"><path d="M-676.32 99.5 C-683.53 103.81, -692.47 107.92, -702.51 114.12 M-676.32 99.5 C-685.23 103.66, -693.88 110.42, -702.51 114.12" stroke="#2f9e44" stroke-width="2" fill="none"></path></g><g transform="translate(1015.3332430863516 755.3555055027908) rotate(0 -350.61797640728423 57.667980320401284)"><path d="M-673.05 119.76 C-681.19 117.47, -691.19 114.98, -702.51 114.12 M-673.05 119.76 C-683.22 117.04, -692.98 116.9, -702.51 114.12" stroke="#2f9e44" stroke-width="2" fill="none"></path></g></g><mask></mask><g stroke-linecap="round"><g transform="translate(283.1059541449042 906.733407803025) rotate(0 75.82986972887022 48.62434649796029)"><path d="M-0.22 0.6 C25.03 16.74, 125.6 81.54, 151.05 97.73 M-1.79 -0.14 C23.89 15.57, 127.78 79.9, 153.44 95.86" stroke="#2f9e44" stroke-width="2" fill="none"></path></g><g transform="translate(283.1059541449042 906.733407803025) rotate(0 75.82986972887022 48.62434649796029)"><path d="M124.08 89.72 C132.97 90.4, 140.63 94.47, 153.44 95.86 M124.08 89.72 C134.23 92.94, 144.53 94.51, 153.44 95.86" stroke="#2f9e44" stroke-width="2" fill="none"></path></g><g transform="translate(283.1059541449042 906.733407803025) rotate(0 75.82986972887022 48.62434649796029)"><path d="M134.9 72.28 C141.01 77.61, 145.79 86.33, 153.44 95.86 M134.9 72.28 C141.35 81.34, 147.96 88.85, 153.44 95.86" stroke="#2f9e44" stroke-width="2" fill="none"></path></g></g><mask></mask><g stroke-linecap="round"><g transform="translate(1126.9301289796886 775.5884611372693) rotate(0 -18.293288657020412 110.39455497804892)"><path d="M-0.61 0.48 C-6.53 37.26, -29.72 184.74, -35.74 221.28 M1.27 -0.31 C-4.71 36.06, -29.78 182.62, -36.25 219.41" stroke="#e8590c" stroke-width="2" fill="none"></path></g><g transform="translate(1126.9301289796886 775.5884611372693) rotate(0 -18.293288657020412 110.39455497804892)"><path d="M-41.55 189.88 C-39.1 199.64, -37.6 206.36, -36.25 219.41 M-41.55 189.88 C-39.94 196.3, -39.46 201.62, -36.25 219.41" stroke="#e8590c" stroke-width="2" fill="none"></path></g><g transform="translate(1126.9301289796886 775.5884611372693) rotate(0 -18.293288657020412 110.39455497804892)"><path d="M-21.33 193.38 C-24.6 202.05, -28.8 207.78, -36.25 219.41 M-21.33 193.38 C-23.93 199.25, -27.65 203.84, -36.25 219.41" stroke="#e8590c" stroke-width="2" fill="none"></path></g></g><mask></mask><g stroke-linecap="round"><g transform="translate(877.6852931581589 774.7305552113227) rotate(0 15.277342944387556 110.82350794102223)"><path d="M0.85 0.49 C6.02 37.16, 25.45 183.51, 30.43 220.54 M-0.17 -0.3 C4.89 36.44, 24.37 184.63, 29.42 221.5" stroke="#e03131" stroke-width="2" fill="none"></path></g><g transform="translate(877.6852931581589 774.7305552113227) rotate(0 15.277342944387556 110.82350794102223)"><path d="M15.51 194.92 C19.89 201.24, 20.71 208.39, 29.42 221.5 M15.51 194.92 C20.83 204.64, 27.01 215.52, 29.42 221.5" stroke="#e03131" stroke-width="2" fill="none"></path></g><g transform="translate(877.6852931581589 774.7305552113227) rotate(0 15.277342944387556 110.82350794102223)"><path d="M35.85 192.19 C35.17 199.34, 30.91 207.17, 29.42 221.5 M35.85 192.19 C33.33 203.04, 31.66 214.97, 29.42 221.5" stroke="#e03131" stroke-width="2" fill="none"></path></g></g><mask></mask><g stroke-linecap="round" transform="translate(546.560291546934 116.44397734336708) rotate(0 150 35)"><path d="M17.5 0 C83.63 0.25, 141.98 -1.48, 282.5 0 C290.73 -2.35, 300.78 8.52, 300 17.5 C298.83 27.22, 297.87 37.2, 300 52.5 C301.15 61.59, 290.58 68.26, 282.5 70 C178.57 75.46, 75.56 70.66, 17.5 70 C2.79 71.92, -2.28 64.8, 0 52.5 C0.2 40.94, 0.46 27.18, 0 17.5 C-2.2 8.22, 8.12 -2.19, 17.5 0" stroke="none" stroke-width="0" fill="#a5d8ff"></path><path d="M17.5 0 C114.2 0.47, 215.19 0.94, 282.5 0 M17.5 0 C106.36 1.12, 194.81 1.73, 282.5 0 M282.5 0 C295.8 -0.36, 300.75 4.65, 300 17.5 M282.5 0 C292.36 -2.17, 298.83 6.43, 300 17.5 M300 17.5 C301.44 29.75, 301.84 46.29, 300 52.5 M300 17.5 C299.75 28.16, 300.12 40.32, 300 52.5 M300 52.5 C299.98 64.28, 293.55 71.65, 282.5 70 M300 52.5 C298.97 62.66, 295.45 72.2, 282.5 70 M282.5 70 C184.56 70.78, 86.13 71.25, 17.5 70 M282.5 70 C202.54 69.89, 120.61 70.9, 17.5 70 M17.5 70 C6.26 68.23, -1.08 62.99, 0 52.5 M17.5 70 C4.05 71.3, -0.46 65.94, 0 52.5 M0 52.5 C0.86 37, 0.62 24.6, 0 17.5 M0 52.5 C0.69 43.98, 0.89 34.47, 0 17.5 M0 17.5 C-0.12 6.46, 4.33 -0.66, 17.5 0 M0 17.5 C-2.11 7.51, 6.98 1.38, 17.5 0" stroke="#1971c2" stroke-width="2" fill="none"></path></g><g transform="translate(556.560291546934 124.44397734336708) rotate(0 100.47991943359375 25)"><text x="100.47991943359375" y="0" font-family="Virgil, Segoe UI Emoji" font-size="20px" fill="#1e1e1e" text-anchor="middle" style="white-space: pre;" direction="ltr" dominant-baseline="text-before-edge">API Client</text><text x="100.47991943359375" y="25" font-family="Virgil, Segoe UI Emoji" font-size="20px" fill="#1e1e1e" text-anchor="middle" style="white-space: pre;" direction="ltr" dominant-baseline="text-before-edge">Web • Mobile • Bruno</text></g><g stroke-linecap="round" transform="translate(526.083729046934 276.37757109336707) rotate(0 150 35)"><path d="M17.5 0 C87.42 1.41, 163.39 5.4, 282.5 0 C293.99 3.04, 296.46 4.13, 300 17.5 C300.68 24.83, 295.95 35.59, 300 52.5 C303.07 65.09, 297.32 67.73, 282.5 70 C180.61 68.01, 81.74 66.99, 17.5 70 C7.99 72.14, -2.86 64.74, 0 52.5 C-2.34 43.38, 2.14 27.3, 0 17.5 C-1.36 2.34, 5.38 2.15, 17.5 0" stroke="none" stroke-width="0" fill="#e9ecef"></path><path d="M17.5 0 C101.78 -1.22, 184.24 0.06, 282.5 0 M17.5 0 C101.32 -2.05, 184.16 -2.37, 282.5 0 M282.5 0 C292.6 -1.88, 298.98 6.35, 300 17.5 M282.5 0 C296.43 2.08, 298.42 7.12, 300 17.5 M300 17.5 C300.81 24.31, 299.05 32.32, 300 52.5 M300 17.5 C300.08 25.3, 299.78 33.8, 300 52.5 M300 52.5 C299.1 62.86, 295.28 71.91, 282.5 70 M300 52.5 C301.67 65.26, 294.91 71.17, 282.5 70 M282.5 70 C201.32 69.99, 120.22 72.25, 17.5 70 M282.5 70 C216.74 70.91, 150.22 71.14, 17.5 70 M17.5 70 C4.29 71.13, -0.4 65.71, 0 52.5 M17.5 70 C7.92 69.62, -0.17 65.09, 0 52.5 M0 52.5 C-0.68 44.16, -0.84 38.89, 0 17.5 M0 52.5 C-0.31 38.92, -1 24.38, 0 17.5 M0 17.5 C-1.83 7.29, 6.83 1.2, 17.5 0 M0 17.5 C-1.38 3.69, 5.23 2.04, 17.5 0" stroke="#495057" stroke-width="2" fill="none"></path></g><g transform="translate(536.083729046934 284.37757109336707) rotate(0 133.1549072265625 22.5)"><text x="133.1549072265625" y="0" font-family="Virgil, Segoe UI Emoji" font-size="18px" fill="#1e1e1e" text-anchor="middle" style="white-space: pre;" direction="ltr" dominant-baseline="text-before-edge">Spring Security Filter Chain</text><text x="133.1549072265625" y="22.5" font-family="Virgil, Segoe UI Emoji" font-size="18px" fill="#1e1e1e" text-anchor="middle" style="white-space: pre;" direction="ltr" dominant-baseline="text-before-edge">Currently permits all requests</text></g><g stroke-linecap="round" transform="translate(498.45718296506493 386.5676245217316) rotate(0 170 42.5)"><path d="M21.25 0 C90.91 -0.7, 158.23 -4.2, 318.75 0 C332.31 -2.66, 339.05 8.23, 340 21.25 C342.31 31.88, 342.39 38.38, 340 63.75 C342.71 74.53, 329.58 81.95, 318.75 85 C215.25 87.27, 106.46 86.11, 21.25 85 C8.12 85.84, -0.13 75.72, 0 63.75 C-1.85 44.69, -0.93 34.76, 0 21.25 C-3.59 9.06, 6.8 -3.44, 21.25 0" stroke="none" stroke-width="0" fill="#d0bfff"></path><path d="M21.25 0 C105.79 -0.29, 191.27 -0.21, 318.75 0 M21.25 0 C104.52 0.6, 188.57 1.49, 318.75 0 M318.75 0 C334.89 1.81, 338.63 8.21, 340 21.25 M318.75 0 C330.97 1.75, 341.03 7.71, 340 21.25 M340 21.25 C338.16 32.96, 339.58 43.65, 340 63.75 M340 21.25 C339.42 33.59, 340.43 48.19, 340 63.75 M340 63.75 C341.45 78.87, 333.56 86.02, 318.75 85 M340 63.75 C340.15 79.53, 333.75 85.11, 318.75 85 M318.75 85 C243.19 86.19, 170.26 87.39, 21.25 85 M318.75 85 C255.29 84.13, 192.82 84.28, 21.25 85 M21.25 85 C8.9 84.67, -0.15 78.72, 0 63.75 M21.25 85 C4.99 85.65, -0.61 77.25, 0 63.75 M0 63.75 C2.1 54.59, 2.05 42.47, 0 21.25 M0 63.75 C-0.6 50.4, 0.82 36.18, 0 21.25 M0 21.25 C-1.2 5.22, 6.56 1.78, 21.25 0 M0 21.25 C-0.6 4.88, 5.09 -2.19, 21.25 0" stroke="#7048e8" stroke-width="2" fill="none"></path></g><g transform="translate(508.23997904693397 394.37757109336707) rotate(0 180.39984130859375 25)"><text x="180.39984130859375" y="0" font-family="Virgil, Segoe UI Emoji" font-size="20px" fill="#1e1e1e" text-anchor="middle" style="white-space: pre;" direction="ltr" dominant-baseline="text-before-edge">PasteController</text><text x="180.39984130859375" y="25" font-family="Virgil, Segoe UI Emoji" font-size="20px" fill="#1e1e1e" text-anchor="middle" style="white-space: pre;" direction="ltr" dominant-baseline="text-before-edge">HTTP request and response handling</text></g><g stroke-linecap="round" transform="translate(998.239979046934 381.37757109336707) rotate(0 150 47.5)"><path d="M23.75 0 C120.35 -0.42, 217.17 2.68, 276.25 0 C289.5 -3.59, 298.26 10.99, 300 23.75 C303.46 35.83, 297.41 51.64, 300 71.25 C301.92 84.81, 292.71 97.16, 276.25 95 C186.34 96.27, 94.65 93.8, 23.75 95 C10.31 97.29, -2.19 85.72, 0 71.25 C-3.48 63.58, -0.18 48.53, 0 23.75 C-3.35 5.19, 6.58 -1.57, 23.75 0" stroke="none" stroke-width="0" fill="#fcc2d7"></path><path d="M23.75 0 C118.51 -1.06, 212.91 -2.95, 276.25 0 M23.75 0 C76.52 0.2, 127.14 -0.08, 276.25 0 M276.25 0 C290.39 1.52, 300.89 8.46, 300 23.75 M276.25 0 C291.25 -1.4, 299.72 6.1, 300 23.75 M300 23.75 C300.07 38.58, 301.61 53.74, 300 71.25 M300 23.75 C300.99 35.37, 300.59 46.55, 300 71.25 M300 71.25 C300.13 88.49, 292.81 95.09, 276.25 95 M300 71.25 C298.88 87.41, 294.25 93.82, 276.25 95 M276.25 95 C214.08 94.57, 153.84 94.18, 23.75 95 M276.25 95 C187.02 96.45, 96.26 96.91, 23.75 95 M23.75 95 C6.1 95.57, -0.53 86.5, 0 71.25 M23.75 95 C6.74 94.14, 1.18 89.32, 0 71.25 M0 71.25 C0.18 52.13, -1.11 34.17, 0 23.75 M0 71.25 C-0.84 52.6, -0.5 36.7, 0 23.75 M0 23.75 C-0.52 6, 6.18 -1.91, 23.75 0 M0 23.75 C-1.5 8.41, 9.63 -0.11, 23.75 0" stroke="#c2255c" stroke-width="2" fill="none"></path></g><g transform="translate(1008.239979046934 389.37757109336707) rotate(0 133.3529052734375 22.5)"><text x="133.3529052734375" y="0" font-family="Virgil, Segoe UI Emoji" font-size="18px" fill="#1e1e1e" text-anchor="middle" style="white-space: pre;" direction="ltr" dominant-baseline="text-before-edge">ApiExceptionHandler</text><text x="133.3529052734375" y="22.5" font-family="Virgil, Segoe UI Emoji" font-size="18px" fill="#1e1e1e" text-anchor="middle" style="white-space: pre;" direction="ltr" dominant-baseline="text-before-edge">400 • 403 • 404 • 409 • 410</text></g><g stroke-linecap="round" transform="translate(478.23997904693397 531.3775710933671) rotate(0 200 45)"><path d="M22.5 0 C101.09 -3.61, 181.88 0.66, 377.5 0 C393.42 3.15, 397.73 10.21, 400 22.5 C401.17 29.5, 399.88 43.2, 400 67.5 C402.14 79.64, 393.07 91.03, 377.5 90 C264.26 88.96, 146.56 86.63, 22.5 90 C4.01 89.55, 2.15 78.91, 0 67.5 C-3.29 48.8, -1.27 33.99, 0 22.5 C-0.91 11.07, 6.59 -2.38, 22.5 0" stroke="none" stroke-width="0" fill="#b2f2bb"></path><path d="M22.5 0 C141.19 1.13, 262.63 3.05, 377.5 0 M22.5 0 C160.55 -0.79, 299.98 -1.1, 377.5 0 M377.5 0 C391.78 -1.22, 399.76 5.92, 400 22.5 M377.5 0 C393.08 -0.19, 399.98 7.63, 400 22.5 M400 22.5 C399.06 35.73, 402.28 48.19, 400 67.5 M400 22.5 C400.21 38.84, 400.51 53.83, 400 67.5 M400 67.5 C399.03 82.78, 394.39 88.98, 377.5 90 M400 67.5 C398.63 84.26, 393 87.96, 377.5 90 M377.5 90 C290.82 87.98, 203.69 89.4, 22.5 90 M377.5 90 C276.33 91.1, 176.16 90.73, 22.5 90 M22.5 90 C6.48 89.26, 1.03 84.44, 0 67.5 M22.5 90 C9.13 92.17, -0.14 83.22, 0 67.5 M0 67.5 C1.61 58.37, 1.35 46.05, 0 22.5 M0 67.5 C-0.14 57.23, -0.75 47.91, 0 22.5 M0 22.5 C-1.31 7.93, 8.99 -0.1, 22.5 0 M0 22.5 C1.94 5.24, 6.41 -0.39, 22.5 0" stroke="#2b8a3e" stroke-width="2" fill="none"></path></g><g transform="translate(488.23997904693397 539.3775710933671) rotate(0 177.99691772460938 28.75)"><text x="177.99691772460938" y="0" font-family="Virgil, Segoe UI Emoji" font-size="23px" fill="#1e1e1e" text-anchor="middle" style="white-space: pre;" direction="ltr" dominant-baseline="text-before-edge">PasteService</text><text x="177.99691772460938" y="28.75" font-family="Virgil, Segoe UI Emoji" font-size="23px" fill="#1e1e1e" text-anchor="middle" style="white-space: pre;" direction="ltr" dominant-baseline="text-before-edge">Coordinates the paste lifecycle</text></g><g stroke-linecap="round" transform="translate(31.61436958214881 516.424662580835) rotate(0 140 45)"><path d="M22.5 0 C70.35 -0.39, 114.73 -0.76, 257.5 0 C269.12 -3.34, 276.95 9.42, 280 22.5 C282.28 30.29, 280.71 44.84, 280 67.5 C280.84 82.37, 270.3 92.39, 257.5 90 C169.14 88.28, 88.48 85.63, 22.5 90 C9.48 89.72, -3.44 79.15, 0 67.5 C-0.61 60.98, -0.61 44.94, 0 22.5 C1.28 9.43, 7.19 3.29, 22.5 0" stroke="none" stroke-width="0" fill="#ffec99"></path><path d="M22.5 0 C82.56 -3.1, 140.53 -3.37, 257.5 0 M22.5 0 C110.56 -1.05, 199.12 -1.2, 257.5 0 M257.5 0 C273 -0.16, 279.98 7.61, 280 22.5 M257.5 0 C271.8 1.9, 278.97 6, 280 22.5 M280 22.5 C281.38 39.15, 281.45 54.64, 280 67.5 M280 22.5 C279.68 39.3, 281.11 55.31, 280 67.5 M280 67.5 C278.81 84.03, 272.93 88.23, 257.5 90 M280 67.5 C278.76 81.15, 270.72 91.3, 257.5 90 M257.5 90 C191.41 91.67, 126.55 90.27, 22.5 90 M257.5 90 C179.93 89.11, 103.64 90.24, 22.5 90 M22.5 90 C8.92 91.89, -0.12 83.13, 0 67.5 M22.5 90 C5.78 89.24, -2.11 84.18, 0 67.5 M0 67.5 C-2.13 51.22, 1.5 35.48, 0 22.5 M0 67.5 C-0.26 58.53, 1.14 49.07, 0 22.5 M0 22.5 C1.69 5.54, 6.55 -0.34, 22.5 0 M0 22.5 C-1.7 6.89, 8.23 -1.65, 22.5 0" stroke="#e67700" stroke-width="2" fill="none"></path></g><g transform="translate(41.61436958214881 524.424662580835) rotate(0 120.07942199707031 31.875)"><text x="120.07942199707031" y="0" font-family="Virgil, Segoe UI Emoji" font-size="17px" fill="#1e1e1e" text-anchor="middle" style="white-space: pre;" direction="ltr" dominant-baseline="text-before-edge">PasteAccessService</text><text x="120.07942199707031" y="21.25" font-family="Virgil, Segoe UI Emoji" font-size="17px" fill="#1e1e1e" text-anchor="middle" style="white-space: pre;" direction="ltr" dominant-baseline="text-before-edge">BCrypt hash and verification</text><text x="120.07942199707031" y="42.5" font-family="Virgil, Segoe UI Emoji" font-size="17px" fill="#1e1e1e" text-anchor="middle" style="white-space: pre;" direction="ltr" dominant-baseline="text-before-edge">(PasteAccessPolicy)</text></g><g stroke-linecap="round" transform="translate(347.23065790854844 674.0036628881999) rotate(0 125 45)"><path d="M22.5 0 C98.94 -5.46, 178.7 -0.77, 227.5 0 C240.22 0.63, 252.16 9.64, 250 22.5 C250.97 32.3, 247.93 44.74, 250 67.5 C252.29 80.31, 241.14 86.51, 227.5 90 C170.32 86.47, 106.55 83.73, 22.5 90 C4.77 88.67, -1.57 81.59, 0 67.5 C1.49 51.47, -0.1 34.87, 0 22.5 C2.17 9.22, 6.27 -2.9, 22.5 0" stroke="none" stroke-width="0" fill="#ffec99"></path><path d="M22.5 0 C71.3 2.35, 117.88 0.9, 227.5 0 M22.5 0 C71.72 1.37, 120.48 1.49, 227.5 0 M227.5 0 C241.89 1.65, 249.1 6.19, 250 22.5 M227.5 0 C243.78 2.2, 251.67 8.6, 250 22.5 M250 22.5 C251.63 38.17, 250.32 51.43, 250 67.5 M250 22.5 C249.83 37.4, 250.64 49.88, 250 67.5 M250 67.5 C248.92 81.32, 240.95 91.13, 227.5 90 M250 67.5 C249.54 84.28, 244.59 89.62, 227.5 90 M227.5 90 C168.02 87.87, 107.02 87.43, 22.5 90 M227.5 90 C174.26 92.62, 119.7 92.05, 22.5 90 M22.5 90 C6 89.34, -1.83 83.96, 0 67.5 M22.5 90 C8.65 91.38, -1.38 80.36, 0 67.5 M0 67.5 C-2.31 53.45, -2.31 41.55, 0 22.5 M0 67.5 C0.51 52.05, -0.81 38.39, 0 22.5 M0 22.5 C-1.48 6.97, 8.14 -1.43, 22.5 0 M0 22.5 C-2.29 6.39, 9.46 0.59, 22.5 0" stroke="#e67700" stroke-width="2" fill="none"></path></g><g transform="translate(352.9570545190513 684.9943909107753) rotate(0 104.158935546875 31.875)"><text x="104.158935546875" y="0" font-family="Virgil, Segoe UI Emoji" font-size="17px" fill="#1e1e1e" text-anchor="middle" style="white-space: pre;" direction="ltr" dominant-baseline="text-before-edge">PasteExpiryService</text><text x="104.158935546875" y="21.25" font-family="Virgil, Segoe UI Emoji" font-size="17px" fill="#1e1e1e" text-anchor="middle" style="white-space: pre;" direction="ltr" dominant-baseline="text-before-edge">Active check and cleanup</text><text x="104.158935546875" y="42.5" font-family="Virgil, Segoe UI Emoji" font-size="17px" fill="#1e1e1e" text-anchor="middle" style="white-space: pre;" direction="ltr" dominant-baseline="text-before-edge">(PasteExpiryPolicy)</text></g><g stroke-linecap="round" transform="translate(678.239979046934 676.3775710933671) rotate(0 125 45)"><path d="M22.5 0 C62.94 -1.19, 109.37 0.15, 227.5 0 C239.64 0.57, 251.03 8.34, 250 22.5 C251.79 33.66, 248.15 45.69, 250 67.5 C249.55 84.65, 238.91 91.98, 227.5 90 C165.19 85.75, 106.34 86.12, 22.5 90 C11.07 89.09, -2.38 83.78, 0 67.5 C2.24 53.3, -1.16 32.77, 0 22.5 C-1.47 8.48, 5.35 1.6, 22.5 0" stroke="none" stroke-width="0" fill="#ffec99"></path><path d="M22.5 0 C92.07 0.44, 162.41 1.11, 227.5 0 M22.5 0 C82.04 0.63, 141.72 -0.69, 227.5 0 M227.5 0 C243.61 1.91, 251.45 8.45, 250 22.5 M227.5 0 C243.24 1.17, 250.15 9.12, 250 22.5 M250 22.5 C250.3 39.52, 249 51.57, 250 67.5 M250 22.5 C249.56 38.86, 249.32 56.96, 250 67.5 M250 67.5 C249.6 84.05, 244.32 89.67, 227.5 90 M250 67.5 C249.83 83.42, 240.41 90.65, 227.5 90 M227.5 90 C170.77 89.98, 117.1 90.33, 22.5 90 M227.5 90 C145.95 90.28, 64.91 91.23, 22.5 90 M22.5 90 C8.5 91.2, -1.2 80.64, 0 67.5 M22.5 90 C6.9 92.04, -0.6 80.3, 0 67.5 M0 67.5 C0.86 59.39, 0.33 50, 0 22.5 M0 67.5 C-0.53 58.16, 0.53 48.62, 0 22.5 M0 22.5 C-1.99 6.54, 9.21 0.51, 22.5 0 M0 22.5 C2.01 6.05, 9.23 -2.16, 22.5 0" stroke="#e67700" stroke-width="2" fill="none"></path></g><g transform="translate(688.239979046934 684.3775710933671) rotate(0 99.01643371582031 31.875)"><text x="99.01643371582031" y="0" font-family="Virgil, Segoe UI Emoji" font-size="17px" fill="#1e1e1e" text-anchor="middle" style="white-space: pre;" direction="ltr" dominant-baseline="text-before-edge">RedisPasteIdGenerator</text><text x="99.01643371582031" y="21.25" font-family="Virgil, Segoe UI Emoji" font-size="17px" fill="#1e1e1e" text-anchor="middle" style="white-space: pre;" direction="ltr" dominant-baseline="text-before-edge">Prepared unique IDs</text><text x="99.01643371582031" y="42.5" font-family="Virgil, Segoe UI Emoji" font-size="17px" fill="#1e1e1e" text-anchor="middle" style="white-space: pre;" direction="ltr" dominant-baseline="text-before-edge">(PasteIdGenerator)</text></g><g stroke-linecap="round" transform="translate(1018.5841449885752 684.5884611372693) rotate(0 110 45)"><path d="M22.5 0 C75.2 -1.3, 134.66 -1.03, 197.5 0 C212.37 -2.2, 222.39 9.79, 220 22.5 C219.24 35.42, 216.1 46.01, 220 67.5 C219.72 79.06, 209.15 87.27, 197.5 90 C155.06 88.29, 103.1 90.48, 22.5 90 C9.43 89.69, 3.29 84.67, 0 67.5 C-1.2 52.84, -1.88 37.81, 0 22.5 C2.9 4.77, 5.53 -2.57, 22.5 0" stroke="none" stroke-width="0" fill="#ffec99"></path><path d="M22.5 0 C72.7 -0.46, 123.35 -1.05, 197.5 0 M22.5 0 C90 2.1, 157.11 1.62, 197.5 0 M197.5 0 C213.14 1.02, 220.13 8.9, 220 22.5 M197.5 0 C213.33 0.11, 218.88 7.82, 220 22.5 M220 22.5 C221.3 40.67, 218 56.91, 220 67.5 M220 22.5 C219.45 34.13, 220.56 44.04, 220 67.5 M220 67.5 C219.85 83.3, 210.68 90.57, 197.5 90 M220 67.5 C219.39 81.83, 211.33 89.14, 197.5 90 M197.5 90 C137.9 91.12, 75.14 89.74, 22.5 90 M197.5 90 C151.25 91.88, 103.4 90.35, 22.5 90 M22.5 90 C6.98 91.78, -0.52 80.58, 0 67.5 M22.5 90 C5.51 87.81, -1.5 83, 0 67.5 M0 67.5 C-1.94 49.7, -0.31 32.31, 0 22.5 M0 67.5 C-1.14 54.71, 0.71 43.13, 0 22.5 M0 22.5 C1.75 6.24, 9.01 -1.88, 22.5 0 M0 22.5 C-2.13 5.55, 8.72 -1.46, 22.5 0" stroke="#e67700" stroke-width="2" fill="none"></path></g><g transform="translate(1028.5841449885752 692.5884611372693) rotate(0 81.71894073486328 31.875)"><text x="81.71894073486328" y="0" font-family="Virgil, Segoe UI Emoji" font-size="17px" fill="#1e1e1e" text-anchor="middle" style="white-space: pre;" direction="ltr" dominant-baseline="text-before-edge">RedisPasteCache</text><text x="81.71894073486328" y="21.25" font-family="Virgil, Segoe UI Emoji" font-size="17px" fill="#1e1e1e" text-anchor="middle" style="white-space: pre;" direction="ltr" dominant-baseline="text-before-edge">Cache-aside access</text><text x="81.71894073486328" y="42.5" font-family="Virgil, Segoe UI Emoji" font-size="17px" fill="#1e1e1e" text-anchor="middle" style="white-space: pre;" direction="ltr" dominant-baseline="text-before-edge">(PasteCache)</text></g><g stroke-linecap="round" transform="translate(43.098192174006726 825.733407803025) rotate(0 135 40)"><path d="M20 0 C92.55 -2.69, 167.35 1.12, 250 0 C261.15 -1.36, 266.51 6.22, 270 20 C269 30.96, 265.93 46.05, 270 60 C268.67 71.76, 262.42 83.57, 250 80 C188.45 80.99, 126.4 83.1, 20 80 C8.38 78.77, -2.9 71.86, 0 60 C3.34 44.18, -1.54 31.25, 0 20 C-3.12 5.09, 3.1 -1.06, 20 0" stroke="none" stroke-width="0" fill="#d0bfff"></path><path d="M20 0 C90.16 -0.16, 156.4 1.54, 250 0 M20 0 C111.23 -0.5, 201.98 -0.33, 250 0 M250 0 C264.06 0.09, 269.03 6.95, 270 20 M250 0 C265.5 -1.18, 268.63 8.43, 270 20 M270 20 C268.47 31.31, 270.77 45.32, 270 60 M270 20 C270.29 35.49, 269.46 50.47, 270 60 M270 60 C269.47 72.75, 262.31 79.26, 250 80 M270 60 C271.18 75.57, 264.97 82.17, 250 80 M250 80 C181.81 76.98, 115.97 79.39, 20 80 M250 80 C166.96 78.94, 84.15 77.37, 20 80 M20 80 C4.93 78.09, -1.31 73.76, 0 60 M20 80 C8.38 79.89, 1.94 71.07, 0 60 M0 60 C-0.46 50.53, -1.37 37.79, 0 20 M0 60 C0.53 49.3, 0.41 38.92, 0 20 M0 20 C-1.86 4.97, 7.73 -1.27, 20 0 M0 20 C0.4 8.04, 8.03 -1.83, 20 0" stroke="#7048e8" stroke-width="2" fill="none"></path></g><g transform="translate(53.098192174006726 833.733407803025) rotate(0 105.64940643310547 23.75)"><text x="105.64940643310547" y="0" font-family="Virgil, Segoe UI Emoji" font-size="19px" fill="#1e1e1e" text-anchor="middle" style="white-space: pre;" direction="ltr" dominant-baseline="text-before-edge">PasteRepository</text><text x="105.64940643310547" y="23.75" font-family="Virgil, Segoe UI Emoji" font-size="19px" fill="#1e1e1e" text-anchor="middle" style="white-space: pre;" direction="ltr" dominant-baseline="text-before-edge">MongoDB data access</text></g><g stroke-linecap="round" transform="translate(593.5647460550213 852.2667304982311) rotate(0 125 40)"><path d="M20 0 C68.26 -3.32, 117.29 -2.52, 230 0 C245.48 -3.59, 251.98 6.38, 250 20 C247.99 26.61, 248.42 39.93, 250 60 C249.09 70.95, 244.61 81.93, 230 80 C170.31 80.93, 105.02 80.72, 20 80 C7.65 77.85, 1.6 76.24, 0 60 C-2.73 49.46, -3.17 41, 0 20 C-0.58 4.05, 3.68 0.15, 20 0" stroke="none" stroke-width="0" fill="#ffd8a8"></path><path d="M20 0 C75.27 0.25, 128 -0.46, 230 0 M20 0 C93.99 -1.26, 166.91 -1.18, 230 0 M230 0 C245.22 -1.02, 248.81 8.2, 250 20 M230 0 C243.83 -2.04, 248.76 5.31, 250 20 M250 20 C251.77 30.72, 249.89 37.66, 250 60 M250 20 C249.37 33.32, 249.13 46.84, 250 60 M250 60 C251.03 75.27, 244.75 81.89, 230 80 M250 60 C249.86 74.06, 241.61 79.24, 230 80 M230 80 C187.31 79.87, 140.87 80.46, 20 80 M230 80 C147.59 77.38, 66.14 78.41, 20 80 M20 80 C8.16 79.9, 1.69 71.37, 0 60 M20 80 C5.58 79.61, -1.7 72.73, 0 60 M0 60 C-0.68 48.43, 0.8 35.2, 0 20 M0 60 C-1.23 49.68, 0.23 40.42, 0 20 M0 20 C0.35 7.86, 7.85 -1.59, 20 0 M0 20 C0.37 7.33, 7.2 -0.08, 20 0" stroke="#d9480f" stroke-width="2" fill="none"></path></g><g transform="translate(609.8420898050213 861.5714179982311) rotate(0 87.6689682006836 33.75)"><text x="87.6689682006836" y="0" font-family="Virgil, Segoe UI Emoji" font-size="18px" fill="#1e1e1e" text-anchor="middle" style="white-space: pre;" direction="ltr" dominant-baseline="text-before-edge">BitwiseUidCodec</text><text x="87.6689682006836" y="22.5" font-family="Virgil, Segoe UI Emoji" font-size="18px" fill="#1e1e1e" text-anchor="middle" style="white-space: pre;" direction="ltr" dominant-baseline="text-before-edge">Number → short ID</text><text x="87.6689682006836" y="45" font-family="Virgil, Segoe UI Emoji" font-size="18px" fill="#1e1e1e" text-anchor="middle" style="white-space: pre;" direction="ltr" dominant-baseline="text-before-edge">(UidCodec)</text></g><g stroke-linecap="round" transform="translate(337.78514926238495 1003.9821007989455) rotate(0 210 52.5)"><path d="M26.25 0 C123.96 -1.72, 220.22 0.34, 393.75 0 C407.81 -3.35, 417.27 7.42, 420 26.25 C418.85 37.33, 421.04 55.1, 420 78.75 C419.69 99.54, 413.42 106.72, 393.75 105 C296.62 101.98, 199.26 105.12, 26.25 105 C6.02 103.03, -2.57 93.13, 0 78.75 C0.35 62.68, -2.06 51.98, 0 26.25 C-1.49 6.12, 8.43 -0.02, 26.25 0" stroke="none" stroke-width="0" fill="#d0bfff"></path><path d="M26.25 0 C163.82 -0.65, 300.99 -0.28, 393.75 0 M26.25 0 C138.76 -0.64, 249.74 0.15, 393.75 0 M393.75 0 C411.68 -1.77, 418.92 7.57, 420 26.25 M393.75 0 C409.47 1.3, 419.54 10.53, 420 26.25 M420 26.25 C420.72 44.96, 420.48 66.77, 420 78.75 M420 26.25 C420.25 41.45, 420.44 55.65, 420 78.75 M420 78.75 C419.88 96.88, 409.75 104.34, 393.75 105 M420 78.75 C417.89 97.93, 412.4 106.38, 393.75 105 M393.75 105 C306.64 104.08, 216.15 103.32, 26.25 105 M393.75 105 C319.01 105.46, 243.87 104.88, 26.25 105 M26.25 105 C7.8 104.66, -1.48 95.72, 0 78.75 M26.25 105 C9.48 103.35, -2.29 95.14, 0 78.75 M0 78.75 C-1.4 60.02, -2.01 36.43, 0 26.25 M0 78.75 C-0.1 68.04, 0.31 55.34, 0 26.25 M0 26.25 C0.32 9.32, 9.22 -0.07, 26.25 0 M0 26.25 C-1.4 10.28, 10.21 -1.4, 26.25 0" stroke="#7048e8" stroke-width="2" fill="none"></path></g><g transform="translate(347.78514926238495 1011.9821007989455) rotate(0 175.58984375 37.5)"><text x="175.58984375" y="0" font-family="Virgil, Segoe UI Emoji" font-size="20px" fill="#1e1e1e" text-anchor="middle" style="white-space: pre;" direction="ltr" dominant-baseline="text-before-edge">MongoDB</text><text x="175.58984375" y="25" font-family="Virgil, Segoe UI Emoji" font-size="20px" fill="#1e1e1e" text-anchor="middle" style="white-space: pre;" direction="ltr" dominant-baseline="text-before-edge">Paste documents • source of truth</text><text x="175.58984375" y="50" font-family="Virgil, Segoe UI Emoji" font-size="20px" fill="#1e1e1e" text-anchor="middle" style="white-space: pre;" direction="ltr" dominant-baseline="text-before-edge">TTL index removes expired pastes</text></g><g stroke-linecap="round" transform="translate(828.239979046934 996.3775710933671) rotate(0 200 52.50000000000006)"><path d="M26.25 0 C93.61 -1.87, 163.68 -0.55, 373.75 0 C389.68 -0.91, 403.57 7.84, 400 26.25 C400.03 41.81, 402.51 52.52, 400 78.75 C398.77 93.35, 389.78 105.98, 373.75 105 C288.5 107.01, 205.14 106.26, 26.25 105 C7.18 101.44, -1.06 95.67, 0 78.75 C-0.71 64.18, 0.46 54.86, 0 26.25 C-2.06 9.86, 5.53 -1.33, 26.25 0" stroke="none" stroke-width="0" fill="#ffc9c9"></path><path d="M26.25 0 C132.86 -1.46, 239.53 0.41, 373.75 0 M26.25 0 C112.84 -2.32, 198.8 -2.13, 373.75 0 M373.75 0 C389.7 1.13, 399.6 10.3, 400 26.25 M373.75 0 C393.34 -0.38, 399.83 9.67, 400 26.25 M400 26.25 C399.57 36.21, 399.4 49.24, 400 78.75 M400 26.25 C400.31 47.41, 399.62 67.61, 400 78.75 M400 78.75 C398.17 97.71, 392.25 106.2, 373.75 105 M400 78.75 C398.62 94.11, 390.65 107.04, 373.75 105 M373.75 105 C277.25 102.17, 183.52 104, 26.25 105 M373.75 105 C270.92 102.66, 168.22 102.59, 26.25 105 M26.25 105 C9.39 103.57, -1.99 95.29, 0 78.75 M26.25 105 C10.71 105.59, 2.01 94.8, 0 78.75 M0 78.75 C-1.2 60.11, -0.77 39.68, 0 26.25 M0 78.75 C-0.15 60.14, -0.08 40.93, 0 26.25 M0 26.25 C-1.22 10.08, 10.02 -1.21, 26.25 0 M0 26.25 C-0.87 6.52, 8.46 1.37, 26.25 0" stroke="#c92a2a" stroke-width="2" fill="none"></path></g><g transform="translate(847.0897069078587 1005.8305114884442) rotate(0 174.38986206054688 37.49999999999994)"><text x="174.38986206054688" y="0" font-family="Virgil, Segoe UI Emoji" font-size="20px" fill="#1e1e1e" text-anchor="middle" style="white-space: pre;" direction="ltr" dominant-baseline="text-before-edge">Redis</text><text x="174.38986206054688" y="25" font-family="Virgil, Segoe UI Emoji" font-size="20px" fill="#1e1e1e" text-anchor="middle" style="white-space: pre;" direction="ltr" dominant-baseline="text-before-edge">Paste cache • shared UID counter</text><text x="174.38986206054688" y="50" font-family="Virgil, Segoe UI Emoji" font-size="20px" fill="#1e1e1e" text-anchor="middle" style="white-space: pre;" direction="ltr" dominant-baseline="text-before-edge">AOF persistence</text></g><g transform="translate(339.5936341232414 10) rotate(0 355.81039467520236 27.39026591077468)"><text x="355.8103946752024" y="0" font-family="Virgil, Segoe UI Emoji" font-size="43.82442545723948px" fill="#212529" text-anchor="middle" style="white-space: pre;" direction="ltr" dominant-baseline="text-before-edge">Application Architecture and flow</text></g><g transform="translate(34.43071253540484 215.22787014173372) rotate(0 120.39190673828125 10)"><text x="0" y="0" font-family="Virgil, Segoe UI Emoji" font-size="16px" fill="#868e96" text-anchor="start" style="white-space: pre;" direction="ltr" dominant-baseline="text-before-edge">SPRING BOOT APPLICATION</text></g><g transform="translate(318.6847069483556 984.5220087543589) rotate(0 82.0320385913692 8.00406750580521)"><text x="0" y="0" font-family="Virgil, Segoe UI Emoji" font-size="12.806508009288375px" fill="#868e96" text-anchor="start" style="white-space: pre;" direction="ltr" dominant-baseline="text-before-edge">DATA INFRASTRUCTURE</text></g><g transform="translate(708.0797780650714 218.37803383279385) rotate(0 17.523063137415647 7.767317461996001)"><text x="17.523063137415676" y="0" font-family="Virgil, Segoe UI Emoji" font-size="12.427707939193605px" fill="#495057" text-anchor="middle" style="white-space: pre;" direction="ltr" dominant-baseline="text-before-edge">HTTP</text></g><g transform="translate(693.239979046934 350.37757109336707) rotate(0 70.73241424560547 9.375)"><text x="70.73241424560547" y="0" font-family="Virgil, Segoe UI Emoji" font-size="15px" fill="#495057" text-anchor="middle" style="white-space: pre;" direction="ltr" dominant-baseline="text-before-edge">authorized request</text></g><g transform="translate(693.239979046934 485.37757109336707) rotate(0 35.617454528808594 9.375)"><text x="35.617454528808594" y="0" font-family="Virgil, Segoe UI Emoji" font-size="15px" fill="#495057" text-anchor="middle" style="white-space: pre;" direction="ltr" dominant-baseline="text-before-edge">delegates</text></g><g transform="translate(858.239979046934 396.37757109336707) rotate(0 34.99296569824219 8.75)"><text x="34.99296569824219" y="0" font-family="Virgil, Segoe UI Emoji" font-size="14px" fill="#6741d9" text-anchor="middle" style="white-space: pre;" direction="ltr" dominant-baseline="text-before-edge">exceptions</text></g><g transform="translate(354.4449649307021 529.037409371441) rotate(0.4180681893128929 52.2155359699309 8.81067569779313)"><text x="52.215535969930784" y="0" font-family="Virgil, Segoe UI Emoji" font-size="14.097081116469026px" fill="#f08c00" text-anchor="middle" style="white-space: pre;" direction="ltr" dominant-baseline="text-before-edge">password policy</text></g><g transform="translate(463.23997904693397 631.3775710933671) rotate(0 42.89994812011719 9.375)"><text x="42.89994812011719" y="0" font-family="Virgil, Segoe UI Emoji" font-size="15px" fill="#1971c2" text-anchor="middle" style="white-space: pre;" direction="ltr" dominant-baseline="text-before-edge">expiry policy</text></g><g transform="translate(758.239979046934 631.3775710933671) rotate(0 29.744972229003906 9.375)"><text x="29.744972229003906" y="0" font-family="Virgil, Segoe UI Emoji" font-size="15px" fill="#e03131" text-anchor="middle" style="white-space: pre;" direction="ltr" dominant-baseline="text-before-edge">next ID</text></g><g transform="translate(942.6006947675237 585.156532505079) rotate(0 65.42243957519531 9.375)"><text x="65.42243957519531" y="0" font-family="Virgil, Segoe UI Emoji" font-size="15px" fill="#495057" text-anchor="middle" style="white-space: pre;" direction="ltr" dominant-baseline="text-before-edge">find / put / evict</text></g><g transform="translate(147.4475656050322 660.3200009569887) rotate(0 54.81743621826172 9.375)"><text x="54.81743621826172" y="0" font-family="Virgil, Segoe UI Emoji" font-size="15px" fill="#2f9e44" text-anchor="middle" style="white-space: pre;" direction="ltr" dominant-baseline="text-before-edge">insert / delete</text></g><g transform="translate(376.37164580257695 782.9085967034023) rotate(0 51.78742980957031 9.375)"><text x="51.78742980957031" y="0" font-family="Virgil, Segoe UI Emoji" font-size="15px" fill="#1971c2" text-anchor="middle" style="white-space: pre;" direction="ltr" dominant-baseline="text-before-edge">delete expired</text></g><g transform="translate(699.200060319643 807.601087960713) rotate(0 23.894973754882812 9.375)"><text x="23.894973754882812" y="0" font-family="Virgil, Segoe UI Emoji" font-size="15px" fill="#e03131" text-anchor="middle" style="white-space: pre;" direction="ltr" dominant-baseline="text-before-edge">encode</text></g><g transform="translate(424.6510973150298 847.4422645519165) rotate(0 38.624961853027344 9.375)"><text x="38.624961853027344" y="0" font-family="Virgil, Segoe UI Emoji" font-size="15px" fill="#2f9e44" text-anchor="middle" style="white-space: pre;" direction="ltr" dominant-baseline="text-before-edge">cache miss</text></g><g transform="translate(356.05627597651574 935.020944664426) rotate(0 21.11998748779297 9.375)"><text x="21.11998748779297" y="0" font-family="Virgil, Segoe UI Emoji" font-size="15px" fill="#2f9e44" text-anchor="middle" style="white-space: pre;" direction="ltr" dominant-baseline="text-before-edge">CRUD</text></g><g transform="translate(1123.239979046934 891.3775710933671) rotate(0 36.01496887207031 9.375)"><text x="36.01496887207031" y="0" font-family="Virgil, Segoe UI Emoji" font-size="15px" fill="#e8590c" text-anchor="middle" style="white-space: pre;" direction="ltr" dominant-baseline="text-before-edge">cache ops</text></g><g transform="translate(913.239979046934 891.3775710933671) rotate(0 51.34495544433594 9.375)"><text x="51.34495544433594" y="0" font-family="Virgil, Segoe UI Emoji" font-size="15px" fill="#e03131" text-anchor="middle" style="white-space: pre;" direction="ltr" dominant-baseline="text-before-edge">INCRBY 1,000</text></g></svg>